<svg id="Capa_1" enable-background="new 0 0 512 512" height="512" viewBox="0 0 512 512" width="512" xmlns="http://www.w3.org/2000/svg" xmlns:xlink="http://www.w3.org/1999/xlink"><linearGradient id="SVGID_1_" gradientUnits="userSpaceOnUse" x1="256" x2="256" y1="458" y2="0"><stop offset="0" stop-color="#fd3a84"/><stop offset="1" stop-color="#ffa68d"/></linearGradient><linearGradient id="SVGID_2_" gradientUnits="userSpaceOnUse" x1="256" x2="256" y1="512" y2="89.996"><stop offset="0" stop-color="#ffc2cc"/><stop offset="1" stop-color="#fff2f4"/></linearGradient><g><g><g><path d="m326.424 359.29c78.285-115.611 94.576-139.67 94.576-194.29 0-90.981-74.019-165-165-165s-165 74.019-165 165c0 54.614 16.298 78.683 94.613 194.342 2.416 3.568 4.885 7.215 7.399 10.929l-12.012 20.729c11.648 17.242 21.852 45.815 36 67h73l40-67-11.011-20.729c2.526-3.732 5.007-7.396 7.435-10.981z" fill="url(#SVGID_1_)"/></g></g><g><g><path d="m166 180h10.203l12.588 62.942c1.402 7.011 7.559 12.058 14.709 12.058h105c7.15 0 13.307-5.047 14.709-12.058l12.588-62.942h10.203c8.284 0 15-6.716 15-15s-6.716-15-15-15h-33.289l-12.16-48.638c-2.01-8.038-10.156-12.924-18.189-10.914-8.037 2.009-12.924 10.153-10.915 18.19l10.342 41.362h-51.577l10.34-41.362c2.009-8.037-2.877-16.181-10.914-18.19-8.039-2.006-16.181 2.877-18.19 10.914l-12.16 48.638h-33.288c-8.284 0-15 6.716-15 15s6.716 15 15 15zm152.989 190.271c-14.798 21.862-31.354 46.368-50.515 75.059-2.783 4.168-7.463 6.67-12.474 6.67s-9.691-2.502-12.474-6.669c-19.161-28.69-35.716-53.197-50.514-75.06-44.41 12.464-72.012 37.421-72.012 66.729 0 53.518 80.749 75 135 75 55.149 0 135-21.879 135-75 0-29.308-27.601-54.265-72.011-66.729z" fill="url(#SVGID_2_)"/></g></g></g></svg>