<?xml version="1.0" encoding="iso-8859-1"?>
<!-- Generator: Adobe Illustrator 19.0.0, SVG Export Plug-In . SVG Version: 6.00 Build 0)  -->
<svg version="1.1" id="Capa_1" xmlns="http://www.w3.org/2000/svg" xmlns:xlink="http://www.w3.org/1999/xlink" x="0px" y="0px"
	 viewBox="0 0 464 464" style="enable-background:new 0 0 464 464;" xml:space="preserve">
<path style="fill:#DE4C3C;" d="M48,336H16v-72L0,240v-24l16-24h32V336z"/>
<path style="fill:#D64333;" d="M48,248h32v32H48V248z"/>
<path style="fill:#4398D1;" d="M152,80h160v32H152V80z"/>
<g>
	<path style="fill:#3E8CC7;" d="M272,80h40v32h-40V80z"/>
	<path style="fill:#3E8CC7;" d="M216,112h32v32h-32V112z"/>
</g>
<path style="fill:#4398D1;" d="M336,192l-32-48H160l-32,48H80v144h48l32,48h232v-48V192H336z"/>
<path style="fill:#3E8CC7;" d="M336,192l-14.12-21.176c-43.386,76.22-104.946,140.529-179.2,187.2L160,384h232V192H336z"/>
<path style="fill:#4398D1;" d="M464,352l-16,16h-24V208h24l16,16V352z"/>
<path style="fill:#3E8CC7;" d="M392,256h32v48h-32V256z"/>
<path style="fill:#FDB62F;" d="M296,256h-48l16-72l-96,88h48l-16,72L296,256z"/>
<path style="fill:#2A7DB8;" d="M352,192h16v192h-16V192z"/>
<g>
	<path style="fill:#60AADB;" d="M104,248h16v64h-16V248z"/>
	<path style="fill:#60AADB;" d="M104,216h16v16h-16V216z"/>
</g>
<g>
</g>
<g>
</g>
<g>
</g>
<g>
</g>
<g>
</g>
<g>
</g>
<g>
</g>
<g>
</g>
<g>
</g>
<g>
</g>
<g>
</g>
<g>
</g>
<g>
</g>
<g>
</g>
<g>
</g>
</svg>
