<svg id="Capa_1" enable-background="new 0 0 497 497" height="512" viewBox="0 0 497 497" width="512" xmlns="http://www.w3.org/2000/svg"><g><path d="m166.456 128.705c-4.143 0-7.5-3.358-7.5-7.5v-23.201c0-4.142 3.357-7.5 7.5-7.5s7.5 3.358 7.5 7.5v23.201c0 4.142-3.357 7.5-7.5 7.5z" fill="#b8c9ea"/><path d="m152.117 121.204h28.679v34.977h-28.679z" fill="#b8c9ea"/><path d="m192.655 128.705h-52.398c-4.143 0-7.5-3.358-7.5-7.5s3.357-7.5 7.5-7.5h52.398c4.143 0 7.5 3.358 7.5 7.5s-3.357 7.5-7.5 7.5z" fill="#d6e0f4"/><path d="m304.315 121.204h-37.881c-1.449 0-2.828.621-3.788 1.706l-29.434 33.27h76.161v-29.919c0-2.792-2.264-5.057-5.058-5.057z" fill="#8a94db"/><path d="m329.946 210.057v-48.819c0-2.793-2.264-5.058-5.058-5.058h-193.367c-1.81 0-3.482.967-4.384 2.536l-29.524 51.34 103.191 7z" fill="#d6e0f4"/><path d="m109.384 189.588-11.771 20.469h232.333v-20.469z" fill="#b8c9ea"/><g fill="#5766cc"><path d="m303.505 190.619h-2.023c-4.143 0-7.5-3.358-7.5-7.5s3.357-7.5 7.5-7.5h2.023c4.143 0 7.5 3.358 7.5 7.5s-3.358 7.5-7.5 7.5z"/><path d="m271.72 190.619h-2.022c-4.143 0-7.5-3.358-7.5-7.5s3.357-7.5 7.5-7.5h2.022c4.143 0 7.5 3.358 7.5 7.5s-3.358 7.5-7.5 7.5z"/><path d="m239.936 190.619h-2.022c-4.143 0-7.5-3.358-7.5-7.5s3.357-7.5 7.5-7.5h2.022c4.143 0 7.5 3.358 7.5 7.5s-3.358 7.5-7.5 7.5z"/><path d="m208.151 190.619h-2.022c-4.143 0-7.5-3.358-7.5-7.5s3.357-7.5 7.5-7.5h2.022c4.143 0 7.5 3.358 7.5 7.5s-3.357 7.5-7.5 7.5z"/><path d="m176.367 190.619h-2.023c-4.143 0-7.5-3.358-7.5-7.5s3.357-7.5 7.5-7.5h2.023c4.143 0 7.5 3.358 7.5 7.5s-3.357 7.5-7.5 7.5z"/><path d="m144.583 190.619h-2.023c-4.143 0-7.5-3.358-7.5-7.5s3.357-7.5 7.5-7.5h2.023c4.143 0 7.5 3.358 7.5 7.5s-3.357 7.5-7.5 7.5z"/></g><path d="m409.772 212.284c-.94-1.393-2.511-2.227-4.191-2.227h-307.968l-21.484 37.358h-34.438c-5.586 0-10.115 4.529-10.115 10.115v71.575h390.679l30.77-52.786z" fill="#d6e0f4"/><path d="m496.113 265.087-51.917 65.251-69.568 53.474c-3.838 4.824-9.778 7.523-15.942 7.523l-328.734 4.853c-2.206 0 1.015 3.705.35 1.601l-18.062-35.626-12.049-38.141c-.788-2.495.957-5.069 3.568-5.25 20.684-1.434 48.245-8.612 60.362-20.113.934-.886 2.168-1.375 3.456-1.375h255.747c1.508 0 2.937-.673 3.898-1.835l29.009-35.092c.961-1.162 2.39-1.835 3.898-1.835h132.818c3.387 0 5.275 3.914 3.166 6.565z" fill="#6a61b2"/><path d="m492.946 258.522h-34.721c3.388 0 5.275 3.914 3.166 6.565l-106.435 133.774c-3.838 4.824-9.666 3.635-15.831 3.635h34.72c6.165 0 11.993-11.105 15.831-15.929l53.706-55.206 52.73-66.273c2.11-2.652.222-6.566-3.166-6.566z" fill="#514898"/><path d="m407.246 348.413c-17.911 8.707-37.561 13.232-57.476 13.232h-337.693l13.052 41.316c.665 2.104 2.616 3.534 4.823 3.534h343.894c6.165 0 11.993-2.811 15.831-7.635l54.217-68.143c-12.469 5.97-25.579 12.316-36.648 17.696z" fill="#e27f86"/><path d="m380.955 405.198c3.386-1.272 6.414-3.437 8.721-6.336l54.217-68.143c-12.469 5.969-25.579 12.315-36.648 17.695-5.767 2.803-11.716 5.167-17.794 7.092l-34.496 43.356c-3.838 4.824-9.666 7.635-15.831 7.635h34.72c.915 0 1.821-.069 2.715-.191 1.448-.196 2.934-.56 4.396-1.108z" fill="#df646e"/><g fill="#5766cc"><g><path d="m122.123 247.665h-2.023c-4.143 0-7.5-3.358-7.5-7.5s3.357-7.5 7.5-7.5h2.023c4.143 0 7.5 3.358 7.5 7.5s-3.357 7.5-7.5 7.5z"/><path d="m154.14 247.665h-2.022c-4.143 0-7.5-3.358-7.5-7.5s3.357-7.5 7.5-7.5h2.022c4.143 0 7.5 3.358 7.5 7.5s-3.358 7.5-7.5 7.5z"/><path d="m186.157 247.665h-2.023c-4.143 0-7.5-3.358-7.5-7.5s3.357-7.5 7.5-7.5h2.023c4.143 0 7.5 3.358 7.5 7.5s-3.357 7.5-7.5 7.5z"/><path d="m218.174 247.665h-2.023c-4.143 0-7.5-3.358-7.5-7.5s3.357-7.5 7.5-7.5h2.023c4.143 0 7.5 3.358 7.5 7.5s-3.358 7.5-7.5 7.5z"/><path d="m250.19 247.665h-2.022c-4.143 0-7.5-3.358-7.5-7.5s3.357-7.5 7.5-7.5h2.022c4.143 0 7.5 3.358 7.5 7.5s-3.357 7.5-7.5 7.5z"/><path d="m282.208 247.665h-2.023c-4.143 0-7.5-3.358-7.5-7.5s3.357-7.5 7.5-7.5h2.023c4.143 0 7.5 3.358 7.5 7.5s-3.357 7.5-7.5 7.5z"/><path d="m314.225 247.665h-2.023c-4.143 0-7.5-3.358-7.5-7.5s3.357-7.5 7.5-7.5h2.023c4.143 0 7.5 3.358 7.5 7.5s-3.358 7.5-7.5 7.5z"/><path d="m346.241 247.665h-2.022c-4.143 0-7.5-3.358-7.5-7.5s3.357-7.5 7.5-7.5h2.022c4.143 0 7.5 3.358 7.5 7.5s-3.357 7.5-7.5 7.5z"/></g><g><path d="m122.123 275.544h-2.023c-4.143 0-7.5-3.358-7.5-7.5s3.357-7.5 7.5-7.5h2.023c4.143 0 7.5 3.358 7.5 7.5s-3.357 7.5-7.5 7.5z"/><path d="m154.14 275.544h-2.022c-4.143 0-7.5-3.358-7.5-7.5s3.357-7.5 7.5-7.5h2.022c4.143 0 7.5 3.358 7.5 7.5s-3.358 7.5-7.5 7.5z"/><path d="m186.157 275.544h-2.023c-4.143 0-7.5-3.358-7.5-7.5s3.357-7.5 7.5-7.5h2.023c4.143 0 7.5 3.358 7.5 7.5s-3.357 7.5-7.5 7.5z"/><path d="m218.174 275.544h-2.023c-4.143 0-7.5-3.358-7.5-7.5s3.357-7.5 7.5-7.5h2.023c4.143 0 7.5 3.358 7.5 7.5s-3.358 7.5-7.5 7.5z"/><path d="m250.19 275.544h-2.022c-4.143 0-7.5-3.358-7.5-7.5s3.357-7.5 7.5-7.5h2.022c4.143 0 7.5 3.358 7.5 7.5s-3.357 7.5-7.5 7.5z"/><path d="m282.208 275.544h-2.023c-4.143 0-7.5-3.358-7.5-7.5s3.357-7.5 7.5-7.5h2.023c4.143 0 7.5 3.358 7.5 7.5s-3.357 7.5-7.5 7.5z"/><path d="m314.225 275.544h-2.023c-4.143 0-7.5-3.358-7.5-7.5s3.357-7.5 7.5-7.5h2.023c4.143 0 7.5 3.358 7.5 7.5s-3.358 7.5-7.5 7.5z"/></g></g></g></svg>